<?xml version="1.0" standalone="no"?><!DOCTYPE svg PUBLIC "-//W3C//DTD SVG 1.1//EN" "http://www.w3.org/Graphics/SVG/1.1/DTD/svg11.dtd"><svg t="1665332789286" class="icon" viewBox="0 0 1024 1024" version="1.1" xmlns="http://www.w3.org/2000/svg" p-id="4137" xmlns:xlink="http://www.w3.org/1999/xlink" width="200" height="200"><path d="M771.511542 1023.657411c-46.706368 0-87.474518-16.101706-118.079179-46.706368-3.882681-3.882681-7.536969-7.879558-10.962864-12.219026-4.339467-3.540091-8.564737-7.308576-12.447418-11.191256-5.938218-5.938218-11.41965-12.333222-16.330099-19.185012-6.737593-4.910449-13.132597-10.277685-18.956619-16.101706-1.827144-1.827144-3.654288-3.768484-5.367235-5.709825-1.94134-1.712947-3.768484-3.540091-5.595629-5.367236-36.771272-36.771272-51.959407-88.502286-42.823687-145.714732 8.222148-51.274228 35.629307-102.434259 77.196833-144.001784s92.61336-68.746292 143.773391-76.740047c10.277685-1.598751 20.441173-2.398126 30.490466-2.398126 44.99342 0 84.619605 15.759117 114.539087 45.678599 1.827144 1.827144 3.540091 3.654288 5.367236 5.595629 1.94134 1.827144 3.882681 3.540091 5.709825 5.367235 5.824021 5.824021 11.305453 12.219025 16.101706 18.956619 6.85179 4.910449 13.246794 10.391881 19.185012 16.330099 3.882681 3.882681 7.651165 8.107951 11.191256 12.447418 4.22527 3.425895 8.336344 7.080183 12.219026 10.962864 36.657076 36.657076 52.530389 88.502286 44.765027 145.943125-7.080183 52.872979-33.91636 104.832385-75.483885 146.399911-41.567525 41.567525-93.526932 68.403702-146.399911 75.483885-9.592506 1.484554-18.956619 2.169733-28.092339 2.169734z" fill="#25467A" p-id="4138"></path><path d="M490.47396 1024c-45.33601 0-88.38809-7.536969-127.785881-22.49671-41.567525-15.759117-78.224601-39.283595-108.829263-70.002454-9.021523-9.021523-17.586261-18.728226-25.465819-29.00591-10.506078-8.222148-20.55537-17.015278-29.805287-26.265195a316.689729 316.689729 0 0 1-37.913237-45.792796c-16.215903-10.962864-31.404037-23.524479-45.221813-37.342255-4.22527-4.22527-8.450541-8.79313-12.675812-13.475186-4.56786-4.111074-9.021523-8.222148-13.246793-12.447419C16.672689 694.543102-13.132597 590.966879 5.367235 475.514219c17.357868-108.60087 76.054868-217.430133 165.128137-306.617598C277.84008 61.551913 411.906769 0 538.322293 0c90.101037 0 168.896621 31.175644 227.93621 90.215234 4.22527 4.22527 8.336344 8.678934 12.447419 13.246793 4.682056 4.111074 9.249916 8.450541 13.475187 12.675812 13.817776 13.817776 26.379391 29.005911 37.342254 45.221813 16.444296 11.191257 31.860823 23.981265 45.792796 37.913237 9.249916 9.249916 18.043047 19.299208 26.265195 29.805287 10.277685 7.879558 19.984387 16.444296 29.00591 25.465819 37.113862 37.113862 63.60745 82.564068 78.567191 134.980261 14.160366 49.332887 17.472064 102.776848 9.935096 158.618936-15.073938 111.684175-72.172187 222.112189-161.017063 310.842868-52.530389 52.530389-112.026765 93.755325-176.776179 122.418646-62.465485 27.978142-128.471061 42.595294-190.822349 42.595294z" fill="#25467A" p-id="4139"></path><path d="M287.367412 897.976912a328.771719 431.091781 44.999 1 0 609.645203-609.666484 328.771719 431.091781 44.999 1 0-609.645203 609.666484Z" fill="#F48FB1" p-id="4140"></path><path d="M232.139 842.706097a339.734582 431.091781 44.999 1 0 609.645203-609.666483 339.734582 431.091781 44.999 1 0-609.645203 609.666483Z" fill="#F06292" p-id="4141"></path><path d="M226.763527 829.775366a297.367681 425.724546 44.999 1 0 602.054918-602.075934 297.367681 425.724546 44.999 1 0-602.054918 602.075934Z" fill="#FFE0B2" p-id="4142"></path><path d="M148.853243 759.457783a334.138954 431.091781 44.999 1 0 609.645202-609.666484 334.138954 431.091781 44.999 1 0-609.645202 609.666484Z" fill="#F06292" p-id="4143"></path><path d="M646.808966 649.207093C478.483328 817.646928 251.346493 861.955169 122.989629 733.484108s-87.246125-362.688079 81.079513-531.013717S604.327869-4.56786 732.684733 123.903201s82.564068 356.978254-85.875767 525.303892z" fill="#F48FB1" p-id="4144"></path><path d="M565.729452 566.528828c-135.779636 135.779636-316.781086 176.890376-414.875878 78.795584s-76.054868-298.167057 59.724769-433.946694 333.910561-155.87822 432.005353-57.783428 58.925393 277.154901-76.854244 412.934538z" fill="#F8BBD0" p-id="4145"></path><path d="M383.586038 464.551355c-35.286718 0-63.950039-28.663321-63.950039-63.950039 0-7.080183 5.709825-12.790008 12.790007-12.790008s12.790008 5.709825 12.790008 12.790008c0 21.240549 17.243671 38.370023 38.370024 38.370023s38.370023-17.129475 38.370023-38.370023c0-7.080183 5.709825-12.790008 12.790008-12.790008s12.790008 5.709825 12.790008 12.790008c0 35.400914-28.663321 63.950039-63.950039 63.950039z" fill="#25467A" p-id="4146"></path><path d="M255.68596 298.281253m-38.370024 0a38.370023 38.370023 0 1 0 76.740047 0 38.370023 38.370023 0 1 0-76.740047 0Z" fill="#25467A" p-id="4147"></path><path d="M511.486116 298.281253m-38.370024 0a38.370023 38.370023 0 1 0 76.740047 0 38.370023 38.370023 0 1 0-76.740047 0Z" fill="#25467A" p-id="4148"></path><path d="M204.525928 362.231293h-51.160031c-14.160366 0-25.580016 11.41965-25.580015 25.580015s11.41965 25.580016 25.580015 25.580016h51.160031c14.160366 0 25.580016-11.41965 25.580016-25.580016 0-14.046169-11.41965-25.465819-25.580016-25.580015zM613.806178 362.231293h-51.160031c-14.160366 0-25.580016 11.41965-25.580016 25.580015s11.41965 25.580016 25.580016 25.580016h51.160031c14.160366 0 25.580016-11.41965 25.580016-25.580016 0-14.046169-11.41965-25.465819-25.580016-25.580015z" fill="#FF80AB" p-id="4149"></path><path d="M428.465262 960.849336c-3.882681-3.882681-7.422772-7.993755-10.848668-12.333221-4.453663-3.425895-8.678934-7.194379-12.675811-11.191257-5.938218-5.938218-11.305453-12.447418-16.101706-19.413405-6.85179-4.682056-13.246794-10.049292-19.185012-15.873313-1.827144-1.827144-3.654288-3.768484-5.367236-5.709825-1.94134-1.712947-3.882681-3.540091-5.595628-5.253039-31.404037-31.404037-44.308241-76.169064-36.428683-125.958738 7.422772-46.592171 32.546002-93.298539 70.801829-131.440169 38.14163-38.14163 84.733802-63.150664 131.09758-70.230847 49.332887-7.651165 93.869522 5.481432 125.273559 36.885469 1.827144 1.827144 3.540091 3.654288 5.253039 5.595629 1.94134 1.712947 3.882681 3.540091 5.709825 5.367235 5.824021 5.824021 11.191257 12.333222 15.873313 19.185012 6.965986 4.796253 13.475187 10.163488 19.413404 16.101706 3.882681 3.882681 7.651165 8.222148 11.191257 12.675812 4.339467 3.425895 8.450541 6.965986 12.333222 10.848667 31.518234 31.518234 45.107617 76.511654 38.255827 126.758113-6.5092 47.962529-30.947251 95.354076-68.974685 133.38151s-85.418981 62.579681-133.38151 68.974685c-50.132263 6.623397-95.125683-6.965986-126.643916-38.370024z" fill="#25467A" p-id="4150"></path><path d="M444.633616 944.705723a139.319728 182.714397 44.999 1 0 258.392669-258.401688 139.319728 182.714397 44.999 1 0-258.392669 258.401688Z" fill="#D4E157" p-id="4151"></path><path d="M421.211063 921.133348a144.001784 182.714397 44.999 1 0 258.392668-258.401688 144.001784 182.714397 44.999 1 0-258.392668 258.401688Z" fill="#AFB42B" p-id="4152"></path><path d="M418.920945 915.636417a126.072934 180.430467 44.999 1 0 255.162761-255.171667 126.072934 180.430467 44.999 1 0-255.162761 255.171667Z" fill="#FFE0B2" p-id="4153"></path><path d="M385.912509 885.847749a141.603658 182.714397 44.999 1 0 258.392669-258.401689 141.603658 182.714397 44.999 1 0-258.392669 258.401689Z" fill="#AFB42B" p-id="4154"></path><path d="M597.019293 839.230066C525.646482 910.602877 429.378834 929.331103 374.907104 874.97357s-36.999665-153.708487 34.373146-225.081298 169.695996-87.817107 224.053529-33.345378c54.47173 54.357533 35.058325 151.31036-36.314486 222.683172z" fill="#D4E157" p-id="4155"></path><path d="M562.646147 804.171741c-57.555035 57.555035-134.295082 75.027099-175.862607 33.459574S354.580127 711.215791 412.135162 653.660756s141.489461-66.119772 183.171183-24.438051c41.453329 41.453329 24.894837 117.394-32.660198 174.949036z" fill="#DFE983" p-id="4156"></path><path d="M669.534069 960.849336c-3.882681-3.882681-7.422772-7.993755-10.848667-12.333221-4.453663-3.425895-8.678934-7.194379-12.675811-11.191257-5.938218-5.938218-11.305453-12.447418-16.101707-19.413405-6.85179-4.682056-13.246794-10.049292-19.185011-15.873313-1.827144-1.827144-3.654288-3.768484-5.367236-5.709825-1.94134-1.712947-3.882681-3.540091-5.595628-5.253039-31.404037-31.404037-44.308241-76.169064-36.428683-125.958738 7.422772-46.592171 32.546002-93.298539 70.801829-131.440169 38.14163-38.14163 84.733802-63.150664 131.09758-70.230847 49.332887-7.651165 93.869522 5.481432 125.273559 36.885469 1.827144 1.827144 3.540091 3.654288 5.253038 5.595629 1.94134 1.712947 3.882681 3.540091 5.709825 5.367235 5.824021 5.824021 11.191257 12.333222 15.873314 19.185012 6.965986 4.796253 13.475187 10.163488 19.413404 16.101706 3.882681 3.882681 7.651165 8.222148 11.191257 12.675812 4.339467 3.425895 8.450541 6.965986 12.333222 10.848667 31.518234 31.518234 45.107617 76.511654 38.255827 126.758113-6.5092 47.962529-30.947251 95.354076-68.974685 133.38151s-85.418981 62.579681-133.38151 68.974685c-50.132263 6.623397-95.125683-6.965986-126.643917-38.370024z" fill="#25467A" p-id="4157"></path><path d="M685.693264 944.713302a139.319728 182.714397 44.999 1 0 258.392669-258.401689 139.319728 182.714397 44.999 1 0-258.392669 258.401689Z" fill="#FAD53E" p-id="4158"></path><path d="M662.270711 921.140927a144.001784 182.714397 44.999 1 0 258.392669-258.401689 144.001784 182.714397 44.999 1 0-258.392669 258.401689Z" fill="#F6BE1A" p-id="4159"></path><path d="M659.979452 915.643522a126.072934 180.430467 44.999 1 0 255.16276-255.171667 126.072934 180.430467 44.999 1 0-255.16276 255.171667Z" fill="#FFE0B2" p-id="4160"></path><path d="M626.972157 885.855327a141.603658 182.714397 44.999 1 0 258.392669-258.401688 141.603658 182.714397 44.999 1 0-258.392669 258.401688Z" fill="#F6BE1A" p-id="4161"></path><path d="M838.088101 839.230066c-71.372811 71.372811-167.640459 90.101037-222.112189 35.743504-54.47173-54.47173-36.999665-153.708487 34.373146-225.081298s169.695996-87.817107 224.053529-33.345378c54.47173 54.357533 35.058325 151.31036-36.314486 222.683172z" fill="#FAD53E" p-id="4162"></path><path d="M803.714955 804.171741c-57.555035 57.555035-134.295082 75.027099-175.862608 33.459574S595.648935 711.215791 653.20397 653.660756c57.555035-57.555035 141.489461-66.119772 183.171183-24.438051 41.453329 41.453329 24.894837 117.394-32.660198 174.949036z" fill="#FCE898" p-id="4163"></path></svg>